<svg version="1" xmlns="http://www.w3.org/2000/svg" width="2666.667" height="2666.667" viewBox="0 0 2000.000000 2000.000000"><path d="M956 165.6c-2.5.2-11 .8-19 1.4-54.3 4-110.6 14.1-164.5 29.5-28.8 8.3-49.2 15.3-81.2 28.1-14.4 5.7-26.4 10.4-26.7 10.4-.3 0-8.3 3.6-17.8 8.1-29.3 13.6-64.4 33-94.3 52.2-37.6 24-54.4 36.2-82.4 59.8-10.1 8.5-20.4 16.9-23 18.8-4.5 3.4-48.6 47-64.7 64.1-15.1 15.9-28.9 32.8-53.3 65-9.2 12.1-33.6 47.7-35.1 51.2-.6 1.3-4.3 7.7-8.4 14.3-16.5 26.7-39.5 70.3-49.7 94.4-2.3 5.3-4.7 10.8-5.5 12.3-.8 1.4-1.4 3.2-1.4 3.9 0 .7-3.7 10.5-8.1 21.8-25.3 64-42.8 134.5-50.8 204.1-4.1 36.1-4.6 45.6-4.6 95s.5 58.9 4.6 95c8 69.6 25.5 140.1 50.8 204.1 4.4 11.3 8.1 21.1 8.1 21.8 0 .7.6 2.5 1.4 3.9.8 1.5 3.2 7 5.5 12.3 10.2 24.1 33.2 67.7 49.7 94.4 4.1 6.6 7.8 13 8.4 14.3 1.5 3.5 25.9 39.1 35.1 51.2 24.4 32.2 38.2 49.1 53.3 65 16.1 17.1 60.2 60.7 64.7 64.1 2.6 1.9 12.9 10.3 23 18.8 28 23.6 44.8 35.8 82.4 59.8 29.9 19.2 65 38.6 94.3 52.2 9.5 4.5 17.5 8.1 17.8 8.1.3 0 12.3 4.7 26.7 10.4 32 12.8 52.4 19.8 81.2 28.1 20.5 5.9 55.6 14.5 59 14.5.8 0 1.5-.8 1.5-1.8 0-.9.8-5.8 1.9-10.7 1.1-5 2.9-14 4-20 1.2-6.1 3.1-15.1 4.2-20 1.1-5 2.1-10.6 2.2-12.5.2-1.9 1.3-7.8 2.5-13 2.1-9.3 4-19 8.2-42 2.4-12.9 5-27.1 7.6-40.4 1-5 1.7-9.7 1.7-10.5 0-.9.8-5.2 1.8-9.6 1-4.4 2-9.8 2.2-12 .2-2.2 1.1-7.6 2-12 1.5-7.5 3.8-21 7.3-42 2.1-12.7 5.3-31.6 7-41 .8-4.4 1.6-9.8 1.8-12 .2-2.2 1.1-7.8 1.9-12.5.9-4.7 2.3-13.5 3.2-19.5.9-6.1 2.2-15.3 3-20.5 1.6-10.5 3.8-26.3 6-41.5 1.2-9.2 2.3-16.7 5.7-42.5.7-5.2 1.2-10.2 1.1-11-.1-.8.2-4 .8-7 .5-3 1.4-10.2 2-16 5.4-55.8 6.5-73 6.8-102.5.1-14.9-.7-41-1.4-43.5-.3-.8-1.1-5.4-2-10.1-.8-4.8-2.1-10-2.9-11.5-.8-1.6-2.5-5.6-3.7-8.9-4.1-10.7-16.1-28-27.7-39.9-9.4-9.5-36.8-31.6-39.2-31.6-.5 0-3.9-2-7.5-4.4-8.5-5.7-52.8-27.6-55.9-27.6-.7 0-4.3-1.4-8-3-3.6-1.7-10.1-4.2-14.4-5.5-4.2-1.4-9.9-3.4-12.7-4.4-2.7-1.1-11.1-3.8-18.5-6-7.4-2.3-17.8-5.4-23-7.1-14-4.3-15-4.3-25 1.9-4.7 3-12.5 7.1-17.5 9.3-4.9 2.2-9.4 4.3-10 4.8-.5.4-5.3 2-10.5 3.5s-10.2 3.2-11 3.6c-4.5 2.5-29.2 5.9-46.5 6.5-27 1-45.5-1.5-71-9.6-20-6.4-46.2-20.4-59.5-31.8-3-2.6-7.8-6.6-10.6-8.9-2.8-2.3-8.2-7.9-12-12.5-3.8-4.5-7.6-9-8.4-9.9-3-3.2-4.7-5.6-8.6-11.9-2.1-3.6-4.4-7-5-7.6-.6-.7-2.8-5.2-5-10-2.1-4.9-4.1-9.1-4.5-9.4-1.5-1.2-8.9-25.1-10-32-.6-4.1-1.5-8.4-2-9.5-.5-1.1-1.1-11.2-1.3-22.5-.5-22.9 1-34.9 6.5-52.8 1.6-5.1 2.9-9.7 2.9-10.3 0-.6 2.6-6.6 5.7-13.3 6.3-13.5 18.2-32.2 27-42.3 26.2-30.2 63.9-53.2 101.3-61.6 5.2-1.2 10-2.5 10.5-2.8.6-.4 5-1 9.9-1.4 4.9-.4 8.5-1 7.9-1.4-.5-.3-2-2.2-3.3-4.1-1.4-1.9-2.8-4-3.3-4.5-1.9-2.1-11.8-19.4-15.3-26.5-7.5-15.5-9.3-19.7-11.4-26.5-1.3-3.9-2.6-7.5-3-8-.5-.6-1.8-4.8-2.9-9.5-1.2-4.7-2.6-9.4-3.1-10.5-.9-1.8-2.6-11-5.1-26.5-1-6.9-3.1-44.8-2.5-45.9.3-.4.5-3.6.6-7.2.3-14.5 5.5-43.4 10.6-58.6 1.9-5.7 3.4-10.8 3.4-11.4 0-1.1 6.7-16.8 11.6-27.4 3.9-8.2 10.3-19.6 15-26.3 2.4-3.5 4.4-6.5 4.4-6.8 0-.9 5.1-7.5 14.6-18.9 11.3-13.5 26-27.8 37.9-37 5-3.8 9.2-7.2 9.5-7.6.3-.4 5.7-3.9 12-7.9 13.1-8.2 33.5-18.7 43-22.1 3.6-1.2 6.7-2.6 7-2.9.8-1 21.5-7 31-9 4.7-1 10.5-2.2 13-2.8 15.2-3.5 55.4-4.9 74-2.6 33.2 4.3 58.9 11.8 86.5 25.5 17.3 8.5 29.4 15.9 40.5 24.7 4.7 3.7 9.2 7 10 7.3 2 .9 29 27.5 32.2 31.7l2.5 3.3 4.9-5.3c6.9-7.6 24.3-21.4 34.9-27.8 5-2.9 9.2-5.7 9.5-6.1.3-.4 4.8-2.6 10-4.9 5.2-2.3 10-4.6 10.5-5 .6-.5 5.5-2.3 11-4 5.5-1.8 10.5-3.6 11-4 .6-.4 5.3-1.5 10.5-2.5s10-2.1 10.5-2.5c.9-.7 19.7-2.4 37.5-3.4 20.3-1.2 54.6 5 76 13.6 4.1 1.7 9.6 3.8 12.2 4.8 2.6 1 8.7 4.1 13.6 6.9 4.9 2.8 9.2 5.1 9.6 5.1.4 0 4.2 2.6 8.4 5.7s9.3 6.7 11.2 8c1.9 1.3 8.6 7.2 14.9 13.1 18.4 17.3 37.1 43.1 45.2 62.2 1.7 4.1 3.5 7.7 3.9 8 1.3.9 9.8 27.5 11 34.7.7 4 1.6 7.3 2 7.3 1.2 0 10.5-3.3 11.5-4 .6-.4 4.6-1.6 9-2.5 4.4-.9 9.8-2.3 12-3 2.3-.7 7.4-1.7 11.5-2 4.1-.4 8-1.1 8.5-1.5 2-1.6 43.9-2.3 55.7-1 48.3 5.2 89.6 21.5 127.2 50.2 12.6 9.5 30.3 26.7 39.9 38.6 13.4 16.6 28.4 40.7 33.9 54.7.9 2.2 2.7 6.5 4.1 9.5 1.4 3 3.5 9.1 4.8 13.5 1.3 4.4 2.6 8.2 2.9 8.5.4.3 1.5 4.5 2.4 9.5 1 4.9 2.1 9.7 2.6 10.5.4.9 1.1 4.5 1.4 8 .4 3.6 1.1 8.7 1.7 11.5 1.3 7.2 2 45.9.9 53-.5 3.3-1.2 8.5-1.4 11.5-1.1 15.2-13 55.4-20.7 70.5-11.5 22.4-18.8 33.9-31.6 50.1-6.1 7.8-25.3 27-34.6 34.8-17.5 14.4-44.1 30.4-63 37.7-4.3 1.6-8.6 3.4-9.5 3.9-2.8 1.6-19.2 6.1-29.7 8.2-5.5 1.1-10.7 2.3-11.5 2.7-.9.5-8.3 1.4-16.5 2.1l-15 1.3-.1 16.1c-.2 15.5-.3 16.5-3.6 26.6-4.2 12.5-7.4 19.2-13.6 28-7 9.9-15.5 18.3-24.6 24.2-4.4 2.9-8.4 5.6-8.7 6-.3.5-6.1 2.8-12.9 5.3-21.4 7.8-43.4 8.4-64.5 1.8-12-3.7-27.2-12-34.8-19-9.2-8.5-18.8-20.5-22.5-28.1-2-4.2-4-7.9-4.4-8.2-.8-.7-4.8-15.7-4.8-18.3 0-2.1-2 .6-17.1 23-9.8 14.7-13.9 21.1-13.9 21.7 0 .3-2 3.6-4.4 7.3-5.5 8.6-23.9 46.1-27.2 55.6-6.7 19.2-12.4 37.5-12.4 39.9 0 .9-.8 5.4-1.9 10-2.9 13-4.1 29.6-3.6 51.3.2 11 .7 32.6 1 48 .8 41.8 1.4 62.4 2.5 100.5.6 19 1.5 48.9 2 66.5s1.4 40.5 2 51c.5 10.4 1.2 29.3 1.5 42 .7 29.3 3.2 82.6 4.5 93 .5 4.4 1.4 19.7 2 34 .6 14.3 1.5 28.7 2 32 .5 3.3 1.4 14.1 2.1 24 .6 9.9 1.5 22.5 2 28 3.1 34.3 5 51.8 5.7 53.5.3.8 1.1 5.5 1.8 10.5 1.2 9.2 2.8 16.2 3.8 17.2.8.9 17.6-3 41.1-9.4 27.3-7.4 62.3-19.2 90.5-30.6 12.9-5.2 24.6-9.8 26-10.2 5.4-1.7 37.3-17.1 53.5-25.7 27.9-14.9 49.2-27.7 84-50.6 15.9-10.4 38.6-27.6 58.4-44.3 10.1-8.5 20.4-16.9 23-18.8 4.5-3.4 48.6-47 64.7-64.1 15.1-15.9 28.9-32.8 53.3-65 9.2-12.1 33.6-47.7 35.1-51.2.6-1.3 4.3-7.7 8.4-14.3 16.5-26.7 39.5-70.3 49.7-94.4 2.3-5.3 4.7-10.8 5.5-12.3.8-1.4 1.4-3.2 1.4-3.9 0-.7 3.7-10.5 8.1-21.8 25.3-64 42.8-134.5 50.8-204.1 4.1-36.1 4.6-45.6 4.6-95s-.5-58.9-4.6-95c-8-69.6-25.5-140.1-50.8-204.1-4.4-11.3-8.1-21.1-8.1-21.8 0-.7-.6-2.5-1.4-3.9-.8-1.5-3.2-7-5.5-12.3-10.2-24.1-33.2-67.7-49.7-94.4-4.1-6.6-7.8-13-8.4-14.3-1.5-3.5-25.9-39.1-35.1-51.2-24.4-32.2-38.2-49.1-53.3-65-16.1-17.1-60.2-60.7-64.7-64.1-2.6-1.9-12.9-10.3-23-18.8-28-23.6-44.8-35.8-82.4-59.8-29.9-19.2-65-38.6-94.3-52.2-9.5-4.5-17.5-8.1-17.8-8.1-.3 0-12.3-4.7-26.7-10.4-80.5-32-151.2-49-238.7-57.2-12.6-1.2-30.4-1.7-63.5-1.9-25.3-.1-48-.1-50.5.1z"/><path d="M1036.5 795.1c-10.2 4.9-21.3 8.5-32.2 10.4-10.8 1.9-34.2 1.9-44.8 0-4.3-.8-8-1.3-8.1-1.2-.4.6 2.8 16.2 3.5 17.1.4.6 1.8 4.3 3 8.3 2.8 9.3 12.9 29.1 18.8 36.8 16.7 21.5 35 39 55.3 52.8 9.5 6.4 33 18.7 35.8 18.7.8 0 4.6 1.1 8.5 2.5 6.5 2.4 12 3.4 27.7 5.3 7.1.9 28.4-.5 28.8-1.8.2-.5 1.3-1 2.5-1 6.5 0 34.1-11.4 38.7-16 .9-.9 4.1-3.3 7.1-5.3s7.7-5.8 10.4-8.3l5-4.7-8-1.8c-4.4-1-10.2-2.3-13-2.8-13-2.3-39.9-13.6-54-22.7-4.4-2.8-9.8-6.3-12-7.6-2.2-1.4-7.6-5.8-12-9.8-4.4-4-9.2-8.3-10.7-9.7-3.6-3.2-16.5-18.6-20.5-24.3-6.8-9.9-10.3-15.9-13.9-23.5-2.1-4.4-4.1-8.2-4.5-8.5-.4-.3-1.1-1.8-1.4-3.3-.4-1.5-1-2.9-1.4-3.1-.3-.2-4.2 1.4-8.6 3.5zM867.1 840.6c-.6 2.1-1.1 4.8-1.1 5.9 0 1.1-1.6 5.8-3.6 10.5s-3.8 9.4-4.2 10.5c-1.6 5.8-15.4 25.3-23.9 33.9-12.7 12.9-35 26.3-50.8 30.7-4.4 1.2-8.8 2.5-9.7 3-.9.4-4.5 1.1-8.1 1.5l-6.4.6-3.8 11.2c-3.3 9.7-13 30.3-15.6 33-.5.6-.9 1.5-.9 2.2 0 1.2 13 11.4 14.6 11.4.5 0 3.2 1.5 5.9 3.3 8.6 5.8 31.6 17.2 37.8 18.8 1.7.4 7.3 2.1 12.2 3.8 20.2 6.6 45.6 10.2 74.2 10.3 21.9 0 33.4-1.7 42.6-6.5 8.9-4.7 12.8-9.8 15-19.3 1.9-8.7 2.1-13.2.8-16.6-.5-1.3-1.4-5.5-2-9.5-.6-3.9-1.7-8.7-2.5-10.5-.8-1.8-2.7-7.1-4.1-11.8-1.5-4.7-3-8.7-3.4-9-.4-.3-1.7-3.2-2.9-6.5-1.9-5.4-5.9-13.4-21.3-43-2.3-4.4-5.6-10-7.4-12.5-1.7-2.5-5-7.9-7.2-12-2.3-4.1-5.6-9.8-7.4-12.7-9.5-14.5-11.6-17.8-13.6-21.1l-2.1-3.5-1.1 3.9z"/></svg>